<svg id="svg" version="1.1" width="400" height="325.63758389261744" xmlns="http://www.w3.org/2000/svg" xmlns:xlink="http://www.w3.org/1999/xlink" style="display: block;"><g id="svgg"><path id="path0" d="M273.674 84.094 L 272.886 84.966 273.758 84.178 C 274.238 83.744,274.631 83.352,274.631 83.305 C 274.631 83.098,274.409 83.281,273.674 84.094 " stroke="none" fill="#000000" fill-rule="evenodd"></path><path id="path1" d="M316.644 6.976 C 315.906 7.273,315.045 7.516,314.732 7.517 C 314.418 7.517,313.633 7.705,312.987 7.935 C 312.341 8.166,311.208 8.467,310.470 8.605 C 306.646 9.322,302.849 12.250,301.785 15.302 C 301.336 16.592,301.935 17.113,303.335 16.651 C 304.705 16.199,305.168 16.531,305.414 18.139 C 305.503 18.720,305.753 19.398,305.969 19.648 C 306.537 20.303,306.024 21.653,304.399 23.772 C 302.847 25.797,302.654 26.210,302.298 28.261 C 302.117 29.308,301.764 30.140,301.210 30.829 C 300.760 31.390,300.046 32.807,299.624 33.978 C 299.202 35.149,298.766 36.326,298.655 36.593 C 298.504 36.957,298.598 37.117,299.026 37.229 C 300.329 37.569,299.213 40.056,297.607 40.392 C 297.225 40.472,296.581 40.605,296.174 40.689 C 295.737 40.779,294.804 41.519,293.887 42.501 L 292.339 44.161 290.500 44.160 C 289.022 44.160,288.339 44.005,287.018 43.374 C 286.115 42.942,285.310 42.654,285.230 42.734 C 284.547 43.417,281.580 52.208,281.180 54.734 C 281.067 55.448,280.692 56.255,280.228 56.783 C 279.233 57.917,279.256 58.153,280.559 60.104 C 281.755 61.895,282.054 62.013,283.361 61.205 C 283.842 60.908,285.169 60.426,286.310 60.134 L 288.386 59.603 289.180 60.271 C 290.304 61.217,290.817 61.111,291.848 59.719 L 292.752 58.498 295.168 58.590 C 297.799 58.691,301.208 60.139,301.208 61.155 C 301.208 61.396,302.356 62.691,303.758 64.034 C 307.272 67.396,307.174 68.576,303.353 68.922 C 301.841 69.059,301.664 69.016,300.955 68.336 C 300.318 67.727,300.097 67.652,299.642 67.895 C 299.342 68.056,298.658 68.188,298.124 68.188 C 297.465 68.188,296.577 68.535,295.368 69.264 C 293.916 70.139,293.422 70.309,292.713 70.176 C 291.902 70.024,291.813 70.083,291.414 71.037 C 290.898 72.271,290.618 72.472,289.396 72.485 C 287.006 72.510,285.468 73.858,285.078 76.270 C 284.672 78.777,284.532 78.990,282.478 80.231 C 280.852 81.213,280.281 81.402,278.136 81.666 C 275.671 81.970,275.664 81.973,274.695 83.156 C 271.511 87.041,266.292 88.478,263.240 86.309 C 261.926 85.374,260.183 85.058,258.952 85.531 C 258.474 85.714,256.602 89.020,256.121 90.530 C 255.807 91.512,255.830 91.569,257.431 93.864 C 258.327 95.149,259.060 96.342,259.060 96.515 C 259.060 97.238,255.901 99.851,254.611 100.195 C 253.285 100.549,252.207 101.631,250.523 104.295 C 249.641 105.692,249.282 105.935,247.602 106.272 C 246.833 106.427,245.571 106.874,244.799 107.265 C 242.973 108.190,238.262 108.704,235.960 108.228 C 233.790 107.780,231.550 107.848,228.625 108.449 C 225.896 109.011,225.183 109.319,219.848 112.244 C 216.319 114.179,213.718 114.746,212.896 113.758 C 212.743 113.574,212.392 113.128,212.117 112.768 C 211.659 112.168,211.375 112.099,208.695 111.941 C 205.512 111.753,205.384 111.707,202.392 109.662 C 200.856 108.612,200.017 108.224,198.984 108.087 C 197.837 107.935,197.468 107.737,196.726 106.875 C 194.764 104.596,191.611 103.661,184.832 103.348 C 179.933 103.121,179.493 103.053,173.702 101.623 C 166.804 99.920,167.250 99.990,167.244 100.604 C 167.241 101.005,167.202 101.015,166.984 100.671 C 166.776 100.345,166.097 100.276,163.385 100.311 L 160.042 100.353 160.188 99.453 C 160.425 97.991,160.065 96.848,158.940 95.486 C 158.157 94.539,157.840 93.876,157.723 92.942 C 157.419 90.525,156.771 88.214,156.237 87.646 C 155.839 87.223,155.742 86.862,155.862 86.259 C 156.022 85.460,156.003 85.442,154.778 85.304 C 154.092 85.227,153.503 85.119,153.470 85.065 C 153.036 84.362,147.955 79.098,147.426 78.804 C 145.597 77.787,144.346 77.282,142.646 76.876 C 131.036 74.100,127.235 70.844,131.096 66.982 C 132.006 66.073,132.372 65.448,132.626 64.370 C 132.809 63.591,133.185 62.375,133.460 61.668 C 134.237 59.669,133.977 58.399,132.323 56.116 C 132.052 55.742,131.701 54.608,131.543 53.596 C 131.158 51.130,130.153 49.158,129.181 48.964 C 128.742 48.876,128.207 48.449,127.846 47.898 C 127.330 47.112,127.092 46.980,126.194 46.980 C 124.940 46.980,124.295 46.765,124.295 46.347 C 124.295 46.178,123.873 45.703,123.357 45.292 C 122.841 44.880,122.224 44.155,121.985 43.681 C 121.746 43.207,121.172 42.419,120.708 41.931 C 119.831 41.008,119.762 40.689,119.645 37.008 L 119.597 35.492 118.351 35.372 C 117.633 35.303,116.792 35.007,116.368 34.673 C 114.795 33.435,113.371 33.907,112.886 35.828 C 112.473 37.465,110.906 38.527,108.588 38.743 C 105.242 39.056,104.139 40.389,103.881 44.431 C 103.731 46.781,103.592 47.391,102.962 48.465 L 102.220 49.731 100.764 49.560 C 99.916 49.460,99.088 49.506,98.783 49.669 C 98.400 49.874,98.062 49.848,97.519 49.571 C 97.112 49.363,96.140 49.058,95.360 48.893 C 93.546 48.509,92.071 47.765,90.125 46.256 C 88.198 44.760,88.330 44.700,85.487 48.370 C 84.193 50.042,82.428 52.232,81.567 53.237 C 79.859 55.229,79.385 57.554,80.411 58.910 C 81.903 60.882,78.639 60.621,77.084 58.644 L 76.537 57.949 71.222 57.933 C 62.998 57.908,62.691 57.958,64.072 59.095 C 65.527 60.293,66.526 62.612,65.705 62.886 C 65.452 62.970,65.369 64.233,65.367 67.970 C 65.365 73.591,65.358 73.613,63.388 74.198 C 62.313 74.517,62.154 74.657,62.195 75.245 C 62.231 75.761,62.058 76.001,61.476 76.242 C 60.359 76.704,59.959 77.290,59.771 78.736 C 59.537 80.545,59.209 81.022,58.050 81.238 C 57.499 81.340,56.614 81.649,56.085 81.924 C 55.555 82.199,54.045 82.550,52.729 82.704 C 51.413 82.858,49.703 83.169,48.929 83.395 C 47.517 83.808,45.580 83.707,44.933 83.186 C 44.492 82.831,43.758 83.200,43.758 83.777 C 43.758 84.135,43.439 84.360,42.617 84.582 C 41.990 84.750,41.142 85.062,40.732 85.273 C 39.934 85.686,38.981 85.374,36.857 84.008 C 35.715 83.273,34.574 83.772,32.483 85.921 C 30.804 87.646,30.137 87.963,29.382 87.392 C 29.094 87.175,28.346 86.993,27.718 86.988 L 26.577 86.980 26.577 85.778 C 26.577 84.187,25.682 83.453,24.604 84.159 C 23.969 84.576,23.881 84.563,22.846 83.909 C 21.460 83.035,20.967 83.044,20.239 83.956 C 19.697 84.637,19.487 84.697,17.411 84.772 C 14.093 84.891,13.315 85.359,12.294 87.844 C 12.189 88.098,11.766 88.375,11.354 88.460 C 9.518 88.837,8.757 89.754,9.280 90.959 C 9.550 91.581,9.437 92.414,8.852 94.114 L 8.353 95.566 9.005 96.341 C 9.578 97.022,9.796 97.101,10.802 96.995 C 13.055 96.758,14.744 98.869,14.076 101.088 C 13.865 101.791,13.691 102.853,13.691 103.448 C 13.691 104.042,13.434 105.059,13.121 105.707 C 12.653 106.673,12.604 107.006,12.852 107.550 C 13.603 109.198,12.805 110.074,11.174 109.392 C 9.545 108.712,8.538 108.847,8.640 109.732 C 8.711 110.349,8.869 110.484,9.611 110.555 C 10.255 110.617,10.563 110.815,10.741 111.283 C 10.876 111.637,11.458 112.224,12.035 112.589 C 12.612 112.953,13.432 113.665,13.858 114.170 C 14.283 114.676,14.957 115.298,15.356 115.553 C 16.767 116.457,16.864 117.748,15.692 120.012 C 14.796 121.743,15.244 124.564,16.415 124.564 C 17.551 124.564,17.987 124.837,17.987 125.550 C 17.987 126.329,18.432 127.248,18.809 127.248 C 18.956 127.248,19.829 127.833,20.749 128.547 C 22.762 130.109,23.276 130.395,24.976 130.900 C 26.460 131.341,26.712 131.596,26.344 132.282 C 26.203 132.547,26.049 133.989,26.002 135.487 L 25.916 138.211 27.522 139.911 C 28.405 140.846,29.309 141.693,29.530 141.793 C 29.752 141.894,29.796 141.984,29.629 141.995 C 29.461 142.005,29.264 142.245,29.190 142.527 C 29.116 142.810,28.575 143.344,27.988 143.715 C 27.126 144.259,26.888 144.591,26.753 145.438 C 26.661 146.015,26.342 146.707,26.044 146.976 C 25.199 147.741,25.331 149.190,26.376 150.610 C 27.862 152.629,27.765 157.852,26.242 157.852 C 26.104 157.852,25.684 158.094,25.308 158.389 C 23.858 159.530,22.452 158.199,23.344 156.531 C 23.803 155.675,23.672 155.436,22.744 155.436 C 21.547 155.436,20.767 156.047,20.561 157.148 C 20.466 157.653,20.210 158.215,19.993 158.395 C 19.497 158.807,19.480 159.837,19.962 160.237 C 20.563 160.735,20.750 164.055,20.235 165.087 C 19.312 166.936,21.527 171.706,22.997 171.036 C 23.689 170.720,24.143 170.943,24.157 171.604 C 24.159 171.711,24.554 172.001,25.034 172.249 C 26.124 172.813,26.492 173.304,26.714 174.497 C 26.853 175.240,27.469 175.984,29.670 178.061 C 31.382 179.676,32.631 181.095,32.921 181.752 C 33.511 183.089,34.372 183.172,35.715 182.024 C 37.276 180.690,40.805 181.801,40.805 183.626 C 40.805 183.887,41.198 184.654,41.678 185.330 C 42.158 186.006,43.067 187.287,43.699 188.176 C 44.332 189.066,45.193 189.971,45.614 190.189 C 46.421 190.606,47.785 192.072,47.785 192.521 C 47.785 194.081,49.540 196.097,50.328 195.442 C 51.726 194.283,53.837 196.389,53.048 198.156 C 52.907 198.472,53.392 199.202,54.786 200.774 L 56.719 202.953 58.292 202.953 C 59.983 202.953,60.169 203.111,59.329 203.830 C 58.791 204.291,58.628 205.253,58.997 205.791 C 59.106 205.949,60.059 206.353,61.114 206.688 L 63.034 207.299 63.515 209.153 C 64.093 211.380,64.942 211.769,65.504 210.065 C 65.856 209.000,66.309 209.055,66.309 210.163 C 66.309 211.450,67.922 212.108,68.720 211.147 C 69.129 210.654,69.685 210.917,71.247 212.341 C 72.564 213.543,73.308 213.959,74.143 213.961 C 74.485 213.962,75.111 214.144,75.534 214.364 C 76.536 214.887,76.650 214.875,77.625 214.161 L 78.450 213.557 78.855 214.161 C 79.470 215.079,82.472 215.043,83.746 214.103 C 84.730 213.377,85.012 213.424,85.374 214.375 C 85.648 215.095,85.041 217.211,84.410 217.734 C 83.623 218.388,83.921 220.345,84.899 220.949 C 86.006 221.633,87.346 221.558,87.458 220.805 C 87.667 219.400,87.878 219.002,89.166 217.593 C 91.714 214.805,95.609 214.386,97.743 216.671 C 98.176 217.135,98.746 217.450,99.152 217.450 C 99.562 217.450,100.333 217.882,101.090 218.538 C 102.379 219.653,102.592 219.692,104.491 219.158 C 105.231 218.950,106.038 220.540,106.039 222.210 L 106.040 223.614 107.315 224.223 C 108.709 224.889,108.713 224.905,108.332 227.651 C 108.089 229.407,108.249 229.510,112.109 230.088 C 114.013 230.373,115.921 230.727,116.349 230.874 C 116.777 231.021,118.151 231.141,119.402 231.141 L 121.677 231.141 123.399 229.529 C 125.483 227.580,127.042 226.762,129.530 226.310 C 130.684 226.100,132.009 225.621,132.963 225.067 C 133.817 224.572,134.844 224.088,135.245 223.991 C 135.645 223.895,136.447 223.579,137.027 223.288 C 139.235 222.181,141.486 222.966,145.624 226.288 C 148.503 228.598,148.353 228.516,149.051 228.155 C 149.388 227.979,149.845 227.752,150.065 227.649 C 150.417 227.484,150.824 226.555,152.035 223.154 C 152.462 221.956,153.758 221.878,153.990 223.037 C 154.092 223.550,154.389 223.886,154.910 224.083 C 156.036 224.508,156.676 225.770,156.881 227.971 C 157.124 230.583,157.498 231.298,158.567 231.195 C 159.964 231.061,160.366 231.724,160.151 233.809 C 160.051 234.778,159.856 236.861,159.717 238.438 C 159.453 241.425,159.176 242.500,158.469 243.282 C 158.171 243.611,158.091 244.061,158.193 244.826 C 158.326 245.814,158.286 245.906,157.725 245.906 C 156.996 245.906,156.595 246.334,156.469 247.248 C 156.390 247.819,156.256 247.905,155.581 247.826 C 154.928 247.749,154.618 247.928,153.836 248.834 C 153.314 249.440,152.342 250.207,151.678 250.538 C 150.577 251.087,150.456 251.246,150.312 252.326 C 150.200 253.161,149.947 253.677,149.454 254.071 C 149.020 254.419,148.650 255.089,148.478 255.839 C 148.092 257.522,148.116 257.718,148.709 257.718 C 149.796 257.718,149.516 259.584,148.278 260.585 C 146.818 261.767,148.675 262.453,151.007 261.594 C 152.332 261.106,158.389 260.730,158.389 261.136 C 158.389 261.289,158.091 261.610,157.728 261.848 C 156.589 262.594,156.400 263.253,157.060 264.179 C 157.444 264.719,157.583 265.203,157.475 265.632 C 156.944 267.746,158.405 270.199,160.330 270.427 C 162.543 270.689,163.060 271.422,161.676 272.337 C 160.687 272.992,160.592 273.162,160.484 274.465 C 160.401 275.461,160.153 276.161,159.646 276.825 C 158.334 278.546,158.953 279.314,161.879 279.595 C 164.933 279.889,164.844 279.837,164.657 281.205 C 164.507 282.300,164.565 282.470,165.334 283.188 C 165.859 283.679,166.174 284.236,166.174 284.671 C 166.174 285.253,166.297 285.369,166.913 285.371 C 167.319 285.371,168.104 285.498,168.658 285.652 C 169.681 285.936,170.439 285.702,172.617 284.427 C 174.093 283.564,174.450 283.837,174.300 285.712 C 174.126 287.878,174.252 287.981,178.389 289.024 C 179.144 289.214,180.071 288.496,179.691 288.016 C 179.163 287.347,179.071 286.303,179.472 285.529 C 180.110 284.300,179.730 282.291,178.622 281.043 C 178.287 280.665,178.301 280.441,178.729 279.298 C 179.270 277.852,179.385 277.815,181.745 278.305 C 183.426 278.654,184.094 278.419,184.934 277.181 C 185.984 275.636,186.408 275.673,188.099 277.461 C 189.780 279.239,189.971 279.232,192.053 277.312 L 193.235 276.223 193.770 276.903 C 194.446 277.762,194.844 277.765,195.168 276.913 C 195.420 276.249,195.973 275.981,195.973 276.522 C 195.973 277.871,197.704 278.337,198.711 277.259 C 199.512 276.401,199.521 276.399,200.317 276.856 C 201.309 277.426,201.577 277.429,202.183 276.881 C 202.447 276.642,203.060 276.366,203.546 276.268 C 204.296 276.116,204.485 275.915,204.799 274.930 C 205.692 272.130,208.833 271.757,210.844 274.211 C 211.396 274.885,211.981 275.436,212.144 275.436 C 212.308 275.436,212.663 275.637,212.935 275.883 C 213.341 276.251,213.593 276.279,214.355 276.046 C 215.112 275.813,215.445 275.849,216.179 276.243 C 216.705 276.524,217.375 276.667,217.795 276.587 C 220.076 276.151,220.896 277.470,219.489 279.313 C 218.414 280.721,218.347 281.007,218.918 281.761 C 219.134 282.047,219.316 282.633,219.320 283.061 C 219.341 284.972,224.160 287.855,227.294 287.832 C 228.454 287.824,229.346 287.961,229.722 288.205 C 230.114 288.459,231.053 288.591,232.474 288.591 L 234.631 288.591 234.631 287.533 C 234.631 286.400,235.073 285.823,235.323 286.627 C 235.619 287.576,235.902 287.922,236.538 288.111 C 236.892 288.217,237.725 288.458,238.389 288.648 C 239.123 288.858,239.600 289.151,239.604 289.396 C 239.626 290.649,240.599 290.774,242.571 289.776 C 243.939 289.084,243.943 289.084,244.971 289.575 C 246.044 290.087,246.515 290.738,245.814 290.738 C 244.276 290.738,243.746 294.610,244.968 296.913 C 245.321 297.577,245.728 298.377,245.872 298.691 C 246.997 301.128,251.338 300.773,251.323 298.246 C 251.316 297.037,250.298 294.765,249.764 294.765 C 249.168 294.765,249.471 294.109,250.112 294.014 C 250.408 293.970,250.806 294.121,250.996 294.349 C 251.535 294.999,252.081 294.853,252.081 294.058 C 252.081 291.560,255.088 288.975,257.155 289.696 C 257.760 289.907,258.130 289.873,258.756 289.549 C 259.204 289.317,259.810 289.128,260.102 289.128 C 260.394 289.128,260.845 288.916,261.105 288.658 C 261.375 288.390,261.982 288.188,262.519 288.188 C 263.300 288.188,263.487 288.074,263.621 287.518 C 263.813 286.718,264.473 286.525,265.049 287.101 C 265.590 287.641,266.567 287.633,266.968 287.084 C 267.259 286.687,267.319 286.687,267.717 287.084 C 268.412 287.779,268.945 287.591,269.530 286.443 C 270.064 285.397,270.891 285.015,271.275 285.638 C 271.630 286.212,272.483 285.854,273.494 284.706 C 274.461 283.607,274.593 283.539,275.060 283.892 C 276.426 284.926,277.213 283.680,276.756 281.208 C 276.342 278.968,276.628 277.180,277.323 277.667 C 279.121 278.926,280.445 280.359,280.336 280.928 C 280.247 281.395,280.441 281.660,281.200 282.107 C 282.771 283.034,283.055 282.911,282.873 281.379 C 282.704 279.948,283.047 279.252,283.668 279.768 C 284.414 280.387,284.878 279.819,284.684 278.525 C 284.483 277.185,284.927 276.823,285.364 277.972 C 285.821 279.175,287.363 279.199,288.443 278.020 C 289.419 276.954,289.735 276.876,290.738 277.450 C 291.907 278.118,292.540 277.961,292.885 276.916 C 293.191 275.988,293.201 275.983,293.966 276.379 C 295.085 276.958,296.246 276.871,297.388 276.124 C 297.939 275.764,298.726 275.387,299.137 275.287 C 299.599 275.174,300.049 274.783,300.315 274.264 C 300.552 273.801,301.091 273.026,301.514 272.541 C 301.936 272.056,302.282 271.495,302.282 271.295 C 302.282 270.851,302.867 270.604,303.915 270.604 C 304.788 270.604,304.938 270.167,304.238 269.656 C 303.846 269.369,303.832 269.255,304.143 268.880 C 304.457 268.503,304.427 268.354,303.932 267.827 C 303.615 267.490,303.356 267.118,303.356 267.000 C 303.356 266.882,303.568 267.049,303.828 267.370 C 304.609 268.334,306.472 268.445,306.879 267.551 C 307.085 267.098,307.413 266.846,307.796 266.846 C 308.221 266.846,308.686 266.406,309.426 265.302 C 309.996 264.453,310.923 263.191,311.486 262.497 C 312.333 261.453,312.496 261.061,312.429 260.223 C 312.337 259.059,313.939 258.143,314.963 258.774 C 315.646 259.194,315.656 259.186,316.347 257.624 C 316.755 256.700,317.186 256.134,317.552 256.038 C 318.046 255.909,318.121 255.692,318.121 254.388 L 318.121 252.886 319.933 252.876 L 321.745 252.867 320.972 252.235 C 319.957 251.404,320.238 251.039,321.760 251.210 C 323.003 251.351,325.638 250.439,325.638 249.869 C 325.638 249.323,325.035 248.570,324.287 248.184 C 323.666 247.862,323.490 247.590,323.490 246.947 C 323.490 246.494,323.288 245.782,323.042 245.365 C 322.550 244.531,323.053 243.221,323.866 243.221 C 324.579 243.221,324.973 242.435,324.577 241.801 C 324.268 241.307,324.284 241.192,324.690 240.950 C 326.336 239.971,326.830 239.152,326.170 238.492 C 325.819 238.141,326.927 236.033,327.573 235.824 C 328.741 235.446,329.761 233.590,329.401 232.500 C 329.093 231.565,329.125 231.359,329.776 230.062 C 331.107 227.412,333.001 225.619,332.518 227.466 C 332.437 227.774,332.496 228.176,332.648 228.359 C 332.992 228.773,333.691 228.537,333.691 228.008 C 333.691 226.897,334.860 224.934,335.610 224.784 C 336.490 224.608,336.529 224.393,335.966 222.797 C 335.490 221.449,335.601 220.940,336.373 220.940 C 337.008 220.940,336.927 220.218,336.095 218.456 L 335.619 217.450 336.617 217.450 C 338.210 217.450,338.726 216.924,338.200 215.837 C 337.889 215.196,337.840 214.739,338.016 214.126 C 338.208 213.457,338.149 213.143,337.721 212.565 C 337.082 211.700,337.353 211.451,338.664 211.697 C 340.576 212.055,341.087 210.884,340.021 208.584 C 339.664 207.812,339.432 207.024,339.505 206.833 C 339.683 206.370,338.674 205.852,337.800 205.957 C 337.235 206.024,337.038 206.261,336.761 207.203 C 336.123 209.375,335.795 209.511,333.776 208.440 C 331.580 207.275,330.630 207.310,328.833 208.625 C 328.216 209.077,326.980 208.705,326.980 208.067 C 326.980 207.784,327.223 207.476,327.520 207.382 C 327.817 207.287,328.227 206.887,328.433 206.491 C 329.271 204.873,333.052 202.148,334.457 202.148 C 336.118 202.148,334.468 199.407,331.965 198.007 C 331.008 197.472,330.146 196.906,330.050 196.750 C 329.953 196.594,329.508 196.244,329.059 195.971 L 328.245 195.475 329.156 194.912 C 329.657 194.602,330.248 194.405,330.470 194.472 C 330.691 194.540,331.707 194.911,332.727 195.295 C 335.550 196.361,335.738 195.691,333.387 192.941 C 332.735 192.178,331.976 191.598,331.458 191.465 C 330.860 191.311,330.443 190.945,330.067 190.242 C 329.679 189.518,329.150 189.064,328.160 188.610 C 326.715 187.946,326.453 187.516,326.447 185.791 C 326.444 185.047,326.210 184.653,325.235 183.745 C 324.570 183.126,324.027 182.532,324.027 182.426 C 324.027 181.952,321.215 175.193,320.703 174.436 C 320.285 173.817,319.567 173.369,317.987 172.740 C 313.822 171.085,312.622 170.347,312.155 169.158 L 311.733 168.084 312.553 168.002 C 313.296 167.927,313.446 167.741,314.133 166.040 C 314.680 164.688,315.195 163.910,315.970 163.266 C 316.562 162.774,317.047 162.210,317.047 162.012 C 317.047 161.814,317.365 161.274,317.754 160.811 C 318.366 160.085,318.421 159.879,318.157 159.301 C 317.990 158.933,317.852 158.457,317.852 158.242 C 317.852 157.729,318.557 157.739,318.755 158.255 C 319.327 159.746,321.342 158.400,321.342 156.528 C 321.342 155.549,321.410 155.436,321.999 155.436 C 322.448 155.436,322.766 155.206,323.005 154.706 C 323.383 153.919,325.175 152.763,326.029 152.756 C 326.318 152.754,327.015 152.302,327.578 151.752 C 328.446 150.905,328.794 150.747,329.871 150.714 C 331.907 150.650,332.020 150.626,332.483 150.163 C 332.749 149.897,332.866 149.488,332.777 149.135 C 332.696 148.812,332.859 147.923,333.138 147.160 L 333.645 145.772 332.393 145.763 C 331.704 145.759,330.906 145.577,330.620 145.361 C 330.047 144.927,328.707 144.829,328.476 145.204 C 328.205 145.642,326.588 145.712,325.463 145.336 C 324.850 145.131,324.149 145.040,323.905 145.133 C 323.645 145.233,323.219 145.085,322.872 144.775 C 320.922 143.033,318.731 142.050,319.052 143.062 C 319.213 143.568,318.371 144.376,317.274 144.770 C 317.029 144.858,316.751 145.286,316.656 145.720 C 316.560 146.154,316.176 146.797,315.802 147.147 C 315.427 147.498,314.959 148.171,314.762 148.642 C 313.963 150.549,311.341 151.198,309.053 150.054 C 307.212 149.134,307.177 149.079,307.852 148.154 C 309.307 146.162,309.433 145.770,308.778 145.268 C 308.466 145.028,308.054 144.349,307.863 143.758 C 307.483 142.580,306.659 142.208,306.051 142.940 C 305.806 143.236,305.212 143.356,303.994 143.356 C 303.032 143.356,302.282 143.473,302.282 143.624 C 302.282 144.138,301.765 143.886,300.818 142.912 C 300.294 142.372,299.866 141.757,299.866 141.544 C 299.866 140.773,298.918 139.575,298.125 139.344 C 297.680 139.215,297.513 139.098,297.754 139.085 C 298.213 139.059,298.512 138.319,298.522 137.181 C 298.543 134.967,300.227 132.983,301.493 133.682 C 303.735 134.921,303.590 134.880,304.097 134.421 C 304.358 134.184,305.100 133.872,305.745 133.727 C 307.518 133.329,309.261 131.521,309.264 130.078 C 309.264 129.482,309.476 128.680,309.733 128.297 C 310.415 127.282,312.383 125.101,312.617 125.101 C 313.037 125.101,316.242 122.641,316.242 122.319 C 316.242 121.885,318.631 118.658,318.953 118.658 C 319.086 118.658,319.195 118.443,319.195 118.181 C 319.195 116.892,321.152 115.544,322.358 116.002 C 322.811 116.174,323.159 116.128,323.570 115.840 C 324.443 115.228,325.101 115.324,325.101 116.063 C 325.101 116.455,325.503 117.052,326.174 117.654 C 326.974 118.372,327.248 118.824,327.248 119.423 C 327.248 120.292,324.725 124.787,324.104 125.026 C 323.906 125.101,323.440 125.683,323.068 126.317 C 322.696 126.952,322.216 127.617,322.001 127.795 C 321.314 128.366,321.514 129.366,322.349 129.537 C 324.781 130.034,325.085 131.082,323.087 132.081 C 321.631 132.809,321.124 134.027,321.980 134.738 C 322.616 135.265,325.638 133.383,325.638 132.459 C 325.638 132.235,325.909 132.081,326.302 132.081 C 326.765 132.081,327.089 131.842,327.373 131.293 C 329.119 127.917,334.011 124.624,338.198 124.007 C 340.438 123.676,340.989 123.263,342.247 120.972 C 342.831 119.908,343.899 118.439,344.620 117.707 C 346.606 115.691,349.390 113.243,350.149 112.845 C 351.066 112.365,353.557 108.044,353.557 106.933 C 353.557 106.136,354.645 104.430,355.153 104.430 C 355.266 104.430,355.950 104.883,356.673 105.436 C 357.982 106.439,357.996 106.443,360.576 106.443 C 364.382 106.443,365.121 105.568,363.490 102.996 C 362.266 101.067,362.443 100.670,364.698 100.295 C 365.289 100.196,366.081 100.055,366.460 99.981 C 366.928 99.888,367.571 99.252,368.473 97.987 C 369.388 96.704,369.976 96.125,370.370 96.118 C 371.321 96.100,371.945 94.300,372.072 91.208 C 372.105 90.404,373.729 91.090,374.123 92.075 C 374.582 93.221,376.099 94.392,376.785 94.128 C 377.328 93.920,377.284 92.639,376.713 92.008 C 376.202 91.444,377.277 90.206,378.279 90.203 C 378.514 90.202,378.846 89.894,379.017 89.518 C 379.401 88.675,379.434 85.369,379.058 85.369 C 378.895 85.369,378.916 85.163,379.113 84.849 C 379.614 84.046,379.043 80.079,378.194 78.467 C 377.821 77.760,377.139 76.470,376.678 75.600 C 375.583 73.536,375.592 73.488,377.289 72.234 C 378.087 71.645,379.028 70.644,379.381 70.011 C 379.899 69.080,380.149 68.874,380.682 68.936 C 386.368 69.603,387.383 69.262,387.383 66.684 C 387.383 65.283,388.114 62.482,388.777 61.342 C 389.125 60.744,389.611 58.413,389.560 57.584 C 389.152 50.930,389.380 47.979,390.373 47.080 C 391.888 45.709,391.947 44.389,390.564 42.814 C 389.911 42.070,389.689 41.521,389.561 40.326 C 389.293 37.838,388.222 38.019,384.698 41.150 C 383.886 41.871,382.538 42.810,381.702 43.236 C 380.213 43.995,379.487 44.761,378.850 46.246 C 378.675 46.654,378.258 47.091,377.923 47.218 C 376.210 47.866,374.994 48.164,373.289 48.353 C 372.255 48.467,371.026 48.640,370.558 48.737 C 369.810 48.892,369.658 48.820,369.310 48.148 C 369.092 47.726,368.660 47.151,368.350 46.871 C 367.880 46.446,367.785 46.049,367.785 44.516 C 367.785 42.816,367.734 42.650,367.122 42.371 C 366.743 42.198,366.331 41.682,366.161 41.166 C 365.700 39.769,365.247 39.454,363.947 39.627 C 362.936 39.762,362.658 39.662,361.279 38.669 C 359.294 37.239,358.090 36.744,357.086 36.945 C 356.590 37.044,355.623 36.885,354.543 36.525 C 352.914 35.983,352.735 35.973,351.804 36.362 C 348.855 37.594,346.638 35.985,346.592 32.579 C 346.579 31.633,346.480 31.443,345.928 31.305 C 345.421 31.177,345.223 30.881,345.025 29.952 C 344.712 28.487,343.544 26.445,342.704 25.894 C 342.360 25.669,341.749 24.733,341.347 23.816 C 339.747 20.164,337.698 16.172,337.186 15.709 C 336.880 15.432,336.644 14.880,336.644 14.442 C 336.644 11.780,328.699 6.979,327.040 8.638 C 326.798 8.880,326.153 8.683,324.276 7.791 C 321.237 6.347,318.842 6.091,316.644 6.976 M329.979 195.627 C 330.109 196.319,334.154 198.303,334.575 197.881 C 335.079 197.377,334.509 196.807,332.813 196.120 C 330.416 195.148,329.872 195.053,329.979 195.627 M338.831 251.752 C 337.047 252.867,335.312 254.499,334.762 255.577 C 334.489 256.111,333.816 257.083,333.265 257.737 C 332.714 258.391,331.844 259.832,331.331 260.940 C 330.818 262.047,330.048 263.443,329.621 264.041 C 328.330 265.849,328.022 269.379,328.960 271.603 C 329.347 272.521,329.664 273.448,329.664 273.662 C 329.664 273.876,330.321 274.637,331.124 275.352 C 332.775 276.823,333.419 277.872,333.421 279.095 C 333.426 281.484,334.852 280.414,335.136 277.808 C 335.339 275.941,335.997 274.414,337.430 272.483 C 338.891 270.517,339.297 269.574,339.735 267.144 C 340.174 264.707,341.090 261.070,341.500 260.134 C 341.662 259.765,341.965 259.121,342.172 258.703 C 342.380 258.285,342.554 257.198,342.559 256.287 C 342.564 255.258,342.717 254.433,342.962 254.110 C 343.591 253.277,343.443 252.973,341.919 251.961 C 340.207 250.824,340.302 250.831,338.831 251.752 M279.732 282.837 C 279.732 283.117,279.927 283.230,280.315 283.173 C 281.174 283.047,281.266 282.416,280.425 282.416 C 279.974 282.416,279.732 282.563,279.732 282.837 M276.779 284.013 C 276.779 284.584,277.451 285.054,277.787 284.718 C 278.007 284.498,277.531 283.696,277.095 283.551 C 276.919 283.492,276.779 283.696,276.779 284.013 M250.067 302.047 C 244.533 302.590,243.504 302.748,242.891 303.150 C 242.529 303.386,241.882 303.620,241.453 303.669 C 240.872 303.736,240.535 304.013,240.135 304.756 C 239.770 305.434,238.921 306.191,237.487 307.119 L 235.376 308.485 235.500 311.222 C 235.722 316.122,235.345 315.731,242.013 317.973 C 242.604 318.172,243.276 318.411,243.508 318.506 C 243.765 318.611,244.326 318.361,244.954 317.862 C 245.518 317.414,246.216 317.047,246.504 317.047 C 246.792 317.047,247.544 316.534,248.176 315.906 C 248.807 315.279,249.806 314.437,250.395 314.037 C 251.421 313.340,251.475 313.231,251.653 311.499 C 251.883 309.251,252.847 307.389,254.265 306.451 C 255.742 305.473,255.704 304.493,254.129 302.918 C 253.484 302.273,252.790 301.765,252.586 301.790 C 252.382 301.815,251.248 301.931,250.067 302.047 " stroke="none" fill="#ffffff" fill-rule="evenodd"></path></g></svg>