<svg xmlns="http://www.w3.org/2000/svg" viewBox="0 0 50.4 44.9"><path fill="#89B640" d="M25.2 35.5c-.8 0-1.5-.5-1.8-1.2-1.5-3.7-3.7-6.1-5.8-8.4-2.5-2.8-4.9-5.4-5.6-9.6-.7-3.9.3-7.9 2.7-11C17 2.3 20.3.4 24 .1c8-.8 14.8 5.6 14.8 13.4 0 5.9-2.8 9-5.9 12.3-2.1 2.3-4.3 4.8-5.8 8.4-.4.8-1.1 1.3-1.9 1.3zm0-33.4c-.4 0-.7 0-1.1.1-3.1.3-5.9 1.8-7.8 4.3-2 2.7-2.8 6.1-2.3 9.3.6 3.6 2.7 5.9 5.1 8.5 2.1 2.3 4.4 4.9 6.1 8.7 1.6-3.8 4-6.4 6.1-8.7 2.9-3.1 5.3-5.8 5.3-10.9-.1-6.2-5.2-11.3-11.4-11.3zm0 19c-4.2 0-7.6-3.4-7.6-7.6 0-4.2 3.4-7.6 7.6-7.6 4.2 0 7.6 3.4 7.6 7.6 0 4.2-3.4 7.6-7.6 7.6zm0-13.1c-3 0-5.5 2.5-5.5 5.5s2.5 5.5 5.5 5.5 5.5-2.5 5.5-5.5c0-3.1-2.5-5.5-5.5-5.5z"/><path fill="#89B640" d="M47.9 44.9H1.8l-.2-.1c-.7-.2-1.2-.7-1.4-1.3-.5-1.2 0-2.5.1-2.6 0 0 5.6-11.5 6-12.4.6-1.2 1.7-1.4 2.2-1.4h8.1v2.1H8.4c-.1 0-.2.1-.2.2-.4.8-6 12.3-6 12.3-.1.3-.2.8-.1 1 0 0 0 .1.1.1h45.4c.2-.1.5-.2.6-.3v-.1l-5.5-12.8c-.1-.1-.3-.4-.4-.4h-9v-2.1h9c1.5 0 2.3 1.4 2.3 1.6l5.5 12.8c.4.8.2 1.5 0 1.9-.5 1.1-1.9 1.4-2.2 1.5z"/></svg>