<svg xmlns="http://www.w3.org/2000/svg" viewBox="0 0 83.1 36.5"><path fill="#89B640" d="M81.2 14.8c-1.2-1.3-2.9-1.9-4.6-2h-.1c-1.6 0-3.1.6-4.3 1.6h-.3L72 .6 60.1.5h-1.3v3.6l.2.2c.3.3.6.7.8 1.2.1.5.2.8.2 1.1 0 2.1-1.7 3.7-3.8 3.7-1.4 0-2.8-.9-3.4-2.2-.1-.4-.2-.8-.2-1.2 0-1 .4-2 1.2-2.7l.3-.2V.5L41.7.3h-1L29.3.2v3.1l.3.3c.7.7 1.1 1.7 1.1 2.7 0 2.1-1.7 3.7-3.8 3.7-2.1 0-3.8-1.7-3.8-3.8 0-1 .4-2 1.2-2.7l.3-.3V.1L11.5 0l-.1 12.4H11c-1.2-1.1-2.7-1.7-4.4-1.7C3 10.6 0 13.6 0 17.1c0 1.7.6 3.4 1.9 4.6 1.2 1.3 2.9 1.9 4.7 2 1.6 0 3.1-.6 4.3-1.6h.3l-.1 13.8 13.2.1v-3.6l-.3-.2c-.7-.7-1.1-1.7-1.1-2.7 0-2.1 1.7-3.7 3.8-3.7 2.1 0 3.8 1.7 3.8 3.8 0 1-.4 2-1.2 2.7l-.3.3v3.6l13.4.1 11.2.1v-3.5l-.3-.3c-.4-.4-.7-.9-.9-1.4 0-.3-.1-.6-.1-.8 0-2.1 1.7-3.7 3.8-3.7 1.4 0 2.8.9 3.4 2.2.1.4.2.8.2 1.2 0 1-.4 2-1.2 2.7l-.3.3v3.6l12.4.1h1l.1-12.4h.3c1.2 1.1 2.7 1.7 4.4 1.7 3.6 0 6.5-2.9 6.5-6.5.2-1.9-.5-3.6-1.7-4.8zm-54.5 9c-3.2 0-5.8 2.6-5.8 5.7 0 1.4.5 2.8 1.4 3.9v.7l-9.2-.1.1-13.8H10l-.3.3c-.9.9-2 1.4-3.3 1.4-1.2 0-2.4-.5-3.2-1.4-.9-.9-1.3-2-1.3-3.2 0-2.5 2.1-4.5 4.6-4.5 1.2 0 2.4.5 3.3 1.4l.3.3h3.2L13.4 2l9.2.1v.3c-.9 1-1.5 2.4-1.5 3.8 0 3.2 2.5 5.8 5.8 5.8 3.2 0 5.8-2.6 5.8-5.7 0-1.4-.5-2.8-1.4-3.9v-.3l9.4.1-.1 10.8c-1-.8-2.3-1.3-3.7-1.3-2.8 0-5.1 2-5.7 4.7 0 .1 0 .2-.1.3v.3c0 .2-.1.3-.1.5s0 .3.1.5c0 .3.1.5.1.8.6 2.5 2.9 4.4 5.6 4.5 1.3 0 2.5-.4 3.5-1.2l-.1 12.1H31v-.7c.9-1 1.5-2.4 1.5-3.8 0-3.3-2.6-5.9-5.8-5.9z"/></svg>