<svg xmlns="http://www.w3.org/2000/svg" xmlns:xlink="http://www.w3.org/1999/xlink" viewBox="0 0 43.1 42.5"><g fill="#89B640"><path d="M42 39.5L31.2 28.7c2.4-3 3.9-6.7 3.9-10.8C35.1 8.4 27.4.7 17.9.7S.7 8.4.7 17.9s7.7 17.2 17.2 17.2c4.4 0 8.4-1.7 11.5-4.4l10.8 10.8c.3.3.6.4.9.4.3 0 .7-.1.9-.4.5-.6.5-1.5 0-2z"/><path d="M41.1 42.5c-.5 0-1.1-.2-1.4-.6L29.3 31.6c-3.2 2.7-7.3 4.2-11.5 4.2C8 35.8 0 27.8 0 17.9 0 8 8 0 17.9 0c9.9 0 17.9 8 17.9 17.9 0 3.9-1.3 7.7-3.6 10.8L42.5 39c.4.4.6.9.6 1.4 0 .5-.2 1-.6 1.4-.4.5-.9.7-1.4.7zM29.4 29.7l11.2 11.2c.2.2.7.2.9 0 .1-.1.2-.3.2-.4 0-.2-.1-.3-.2-.4L30.3 28.8l.4-.5c2.4-2.9 3.7-6.6 3.7-10.4 0-9.1-7.4-16.5-16.5-16.5S1.4 8.8 1.4 17.9s7.4 16.5 16.5 16.5c4.1 0 8-1.5 11-4.3l.5-.4z"/></g><path fill="#FFF" d="M2.5 17.9c0-8.5 6.9-15.4 15.4-15.4s15.4 6.9 15.4 15.4c0 4.1-1.6 7.8-4.2 10.5v.1c-2.8 2.9-6.8 4.8-11.1 4.8-8.6 0-15.5-6.9-15.5-15.4z"/><g><defs><path id="a" d="M7.6 11.2h20.6v13.4H7.6z"/></defs><clipPath id="b"><use xlink:href="#a" overflow="visible"/></clipPath><g clip-path="url(#b)"><path fill="#89B640" d="M17.9 11.2c-4.5 0-8.4 2.7-10.2 6.5-.1.1-.1.3 0 .4 1.8 3.9 5.7 6.5 10.2 6.5 4.5 0 8.4-2.7 10.2-6.5.1-.1.1-.3 0-.4-1.8-3.9-5.7-6.5-10.2-6.5zm0 11.3c-2.6 0-4.6-2.1-4.6-4.6 0-2.6 2.1-4.6 4.6-4.6 2.6 0 4.6 2.1 4.6 4.6 0 2.5-2.1 4.6-4.6 4.6zm0 0"/></g><g><path fill="#89B640" d="M20.8 17.9c0 1.6-1.3 3-3 3-1.6 0-3-1.3-3-3s1.3-3 3-3 3 1.3 3 3zm0 0"/></g></g></svg>