<svg xmlns="http://www.w3.org/2000/svg" viewBox="0 0 59.7 34.4"><path fill="#89B640" d="M11.1 34.4c-3.2 0-5.7-2.6-5.7-5.7H7c0 2.2 1.8 4.1 4.1 4.1 2.2 0 4.1-1.8 4.1-4.1h1.7c-.1 3.2-2.7 5.7-5.8 5.7z"/><path fill="#89B640" d="M2.8 30.2c-.2 0-1.7-.2-2.4-1.3-.3-.5-.5-1.3-.1-2.4l.1-.3L40.6 4.3c.3-.2.9-.6 1.5-.6.7 0 1.3.5 1.5 1.2.2.9 5 21.3 5.3 22.7.1.3.3 1-.1 1.7-.3.4-.8.9-1.9.9-.2 0-.4 0-.7-.1-.2-.1-1.7-.1-8.4-.1-12.6 0-34.8.2-35 .2zm-.7-2.7v.2c.1.2.5.3.7.3 1.3 0 22.7-.2 35-.2 7 0 8.3.1 8.7.1h.4c-.3-1.5-4.3-18.4-5.2-22h-.1L2.1 27.5zM48.1 8.2c-.3 0-.5-.1-.8-.3-.4-.4-.4-1.1 0-1.5L53.5.3c.4-.4 1.1-.4 1.5 0 .4.4.4 1.1 0 1.5l-6.2 6.1c-.2.2-.5.3-.7.3zM51.2 16.6c-.5 0-.9-.3-1-.8-.1-.6.2-1.1.8-1.3l7.3-1.8c.6-.1 1.1.2 1.3.8.1.6-.2 1.1-.8 1.3l-7.3 1.8h-.3zM58.7 28.5h-.3l-7.2-2c-.6-.2-.9-.7-.7-1.3.2-.6.7-.9 1.3-.7l7.2 2c.6.2.9.7.7 1.3-.2.4-.6.7-1 .7z"/></svg>