<svg xmlns="http://www.w3.org/2000/svg" viewBox="0 0 34.6 55.1"><path fill="#89B640" d="M16.6 43.3c-6.4 0-11.6-4.9-11.6-11V11C5 4.9 10.2 0 16.6 0 23 0 28.2 4.9 28.2 11v21.3c0 6.1-5.2 11-11.6 11zm0-40.9c-5.1 0-9.2 3.8-9.2 8.6v21.3c0 4.7 4.1 8.6 9.2 8.6s9.2-3.8 9.2-8.6V11c0-4.7-4.1-8.6-9.2-8.6z"/><path fill="#FFF" d="M1.2 37.8c0-8.9 7.2-16.1 16.1-16.1 8.9 0 16.1 7.2 16.1 16.1 0 4.3-1.7 8.1-4.4 11v.1c-2.9 3.1-7.1 5-11.6 5-9-.1-16.2-7.3-16.2-16.1z"/><path fill="#89B640" d="M17.3 55.1C7.8 55.1 0 47.3 0 37.8s7.8-17.3 17.3-17.3 17.3 7.8 17.3 17.3c0 4.4-1.7 8.6-4.7 11.8l-.1.1c-3.4 3.5-7.8 5.4-12.5 5.4zm0-32.2c-8.2 0-14.9 6.7-14.9 14.9s6.7 14.9 14.9 14.9c4.1 0 7.8-1.6 10.7-4.5l.3-.3c2.5-2.8 3.9-6.3 3.9-10 0-8.4-6.7-15-14.9-15z"/><g><path fill="#89B640" d="M20 35.2c0-1.4-1.2-2.6-2.6-2.6-1.4 0-2.6 1.2-2.6 2.6 0 .9.5 1.7 1.1 2.1v3.5c0 1.1.6 2.1 1.4 2.1.8 0 1.4-.9 1.4-2.1v-3.5c.9-.4 1.3-1.2 1.3-2.1z"/></g></svg>