<svg xmlns="http://www.w3.org/2000/svg" viewBox="0 0 44.6 44.6"><path fill="#89B640" d="M22.3 44.6C10 44.6 0 34.6 0 22.3S10 0 22.3 0s22.3 10 22.3 22.3c0 5.7-2.2 11.1-6.1 15.2l-.1.1c-4.2 4.5-10 7-16.1 7zm0-42.3c-11 0-20 9-20 20s9 20 20 20c5.5 0 10.6-2.2 14.4-6.1v-.1l.2-.2c3.4-3.7 5.3-8.5 5.3-13.6.1-11-8.9-20-19.9-20z"/><path fill="#89B640" d="M23.1 35.9c-2.4 0-4.8-.7-7-2-3.1-1.9-5.3-4.8-6.2-8.4-.9-3.5-.3-7.2 1.6-10.3 1.9-3.1 4.8-5.3 8.4-6.2 5.3-1.3 10.8.7 14.1 5l-2.2 1.7c-2.6-3.5-7-5.1-11.3-4-2.8.7-5.2 2.4-6.7 4.9-1.5 2.5-1.9 5.4-1.2 8.2.7 2.8 2.4 5.2 4.9 6.7 2.5 1.5 5.4 1.9 8.2 1.2 2.8-.7 5.2-2.5 6.7-5l.1-.4.4-.3.7 1.1.2.1 1.2.4-.1.4c-1.9 3.3-4.9 5.6-8.5 6.5-1.1.2-2.2.4-3.3.4z"/></svg>